# xmcd
#
# Track frame offsets: 
#        150
#        10192
#        23012
#        34545
#        46635
#        57800
#        72212
#        85355
#        100647
#        113337
#        126945
#        139080
#        150045
#        162652
#        174032
#        187390
#        199535
#        212247
#        224435
#        239665
#
# Disc length: 3373 seconds
#
# Revision: 1
# Processed by: cddbd v1.4PL0 Copyright (c) Steve Scherf et al.
# Submitted via: ExactAudioCopy v0.95a4
#
DISCID=050d2b14
DTITLE=Conway Twitty - Forty-One #1 Hits [CD1]
DYEAR=1999
DGENRE=Country
TTITLE0=It's Only Make Believe
TTITLE1=Next In Line
TTITLE2=I Love You More Today
TTITLE3=To See My Angel Cry
TTITLE4=Hello Darling
TTITLE5=Fifteen Years Ago
TTITLE6=How Much More Can She Stand
TTITLE7=(Lost Her Love) On Our Last Date
TTITLE8=I Can't Stop Loving You
TTITLE9=You've Never Been This Far Before
TTITLE10=After The Fire Is Gone (With Loretta Lynn)
TTITLE11=Lead Me On (With Loretta Lynn)
TTITLE12=She Needs Someone To Hold Her (When She Cries)
TTITLE13=Louisiana Woman, Mississippi Man (With Loretta Lynn)
TTITLE14=There's A Honky Tonk Angel (Who'll Take Me Back In)
TTITLE15=As Soon As I Hang Up The Phone (With Loretta Lynn)
TTITLE16=I See The Want To In Your Eyes
TTITLE17=Linda On My Mind
TTITLE18=Touch The Hand
TTITLE19=Feelins' (With Loretta Lynn)
EXTD=
EXTT0=
EXTT1=
EXTT2=
EXTT3=
EXTT4=
EXTT5=
EXTT6=
EXTT7=
EXTT8=
EXTT9=
EXTT10=
EXTT11=
EXTT12=
EXTT13=
EXTT14=
EXTT15=
EXTT16=
EXTT17=
EXTT18=
EXTT19=
PLAYORDER=
